<?xml version="1.0" encoding="iso-8859-1"?>
<!-- Generator: Adobe Illustrator 18.0.0, SVG Export Plug-In . SVG Version: 6.00 Build 0)  -->
<!DOCTYPE svg PUBLIC "-//W3C//DTD SVG 1.1//EN" "http://www.w3.org/Graphics/SVG/1.1/DTD/svg11.dtd">
<svg version="1.1" id="Capa_1" xmlns="http://www.w3.org/2000/svg" xmlns:xlink="http://www.w3.org/1999/xlink" x="0px" y="0px"
	 viewBox="0 0 258.477 258.477" style="enable-background:new 0 0 258.477 258.477;" xml:space="preserve">
<g>
	<path d="M253.293,183.311c-7.106-2.31-13.235-2.31-20.343,0c-3.032,0.985-5.895,2.3-8.672,3.576
		c-2.486,1.142-4.835,2.221-7.034,2.936c-2.036,0.661-3.847,0.982-5.538,0.982c-0.114,0-0.232-0.013-0.347-0.016
		c15.774-8.902,28.524-22.602,36.217-39.358l0.214-0.466c1.067-2.322,0.879-5.028-0.5-7.179c-1.379-2.152-3.759-3.453-6.314-3.453
		h-53.19v-19.536c0-4.142-3.358-7.5-7.5-7.5h-14.047V57.657c0-2.761-2.239-5-5-5s-5,2.239-5,5v55.638h-10.632v-23.29
		c0-2.761-2.239-5-5-5s-5,2.239-5,5v23.29H92.783c-16.414,0-30.163,11.603-33.491,27.036H40.239c-4.142,0-7.5,3.358-7.5,7.5v40.427
		c-1.377,0.603-2.712,1.148-3.991,1.564c-2.036,0.661-3.847,0.982-5.538,0.982s-3.502-0.321-5.536-0.981
		c-2.202-0.716-4.553-1.795-7.041-2.938c-3.767-1.73-8.217-0.079-9.946,3.685c-1.729,3.764-0.079,8.217,3.685,9.946
		c2.77,1.272,5.633,2.588,8.668,3.574c7.108,2.309,13.23,2.309,20.341,0c3.032-0.985,5.895-2.3,8.672-3.576
		c2.486-1.142,4.835-2.221,7.036-2.936c2.033-0.66,3.844-0.981,5.537-0.981s3.503,0.321,5.537,0.981
		c2.201,0.715,4.549,1.794,7.041,2.938c2.769,1.272,5.631,2.587,8.668,3.574c7.108,2.309,13.229,2.31,20.342,0
		c3.033-0.985,5.897-2.301,8.667-3.574c2.487-1.143,4.837-2.222,7.041-2.938c2.032-0.661,3.843-0.981,5.536-0.981
		c1.692,0,3.503,0.321,5.536,0.981c2.204,0.716,4.553,1.795,7.041,2.938c2.77,1.272,5.633,2.588,8.668,3.574
		c7.111,2.309,13.232,2.31,20.341,0c3.036-0.986,5.899-2.301,8.667-3.573c2.489-1.143,4.839-2.223,7.041-2.938
		c2.033-0.66,3.844-0.981,5.537-0.981c1.693,0,3.504,0.321,5.537,0.981c2.201,0.715,4.549,1.794,7.046,2.941
		c2.768,1.271,5.63,2.586,8.664,3.571c3.554,1.154,6.881,1.715,10.17,1.715s6.616-0.561,10.171-1.716
		c3.032-0.985,5.895-2.3,8.672-3.576c2.486-1.142,4.835-2.221,7.036-2.936c2.033-0.66,3.844-0.981,5.537-0.981
		s3.503,0.321,5.537,0.981c3.938,1.28,8.171-0.876,9.45-4.815C259.388,188.821,257.232,184.59,253.293,183.311z M92.783,128.295
		h80.003v12.036H74.925C77.789,133.279,84.715,128.295,92.783,128.295z M170.118,183.311c-3.033,0.985-5.897,2.301-8.667,3.574
		c-2.487,1.143-4.837,2.222-7.04,2.938c-2.035,0.661-3.846,0.982-5.538,0.982s-3.502-0.321-5.536-0.981
		c-2.202-0.716-4.553-1.795-7.041-2.938c-2.769-1.272-5.631-2.587-8.667-3.574c-7.108-2.31-13.238-2.309-20.343,0
		c-3.036,0.986-5.899,2.301-8.667,3.573c-2.489,1.143-4.839,2.223-7.04,2.938c-2.035,0.661-3.846,0.982-5.538,0.982
		s-3.503-0.321-5.537-0.981c-2.204-0.716-4.553-1.795-7.046-2.941c-2.768-1.271-5.63-2.586-8.662-3.571
		c-5.988-1.946-11.288-2.232-17.059-0.898v-27.082h18.278h114.269h47.953c-8.902,13.209-22.016,23.153-37.34,28.135
		c-0.147-0.049-0.289-0.107-0.437-0.155C183.356,181.002,177.226,181.001,170.118,183.311z"/>
	<path d="M161.239,165.256h-10.316c-2.761,0-5,2.239-5,5s2.239,5,5,5h10.316c2.761,0,5-2.239,5-5S164,165.256,161.239,165.256z"/>
	<path d="M123.151,165.256h-10.316c-2.761,0-5,2.239-5,5s2.239,5,5,5h10.316c2.761,0,5-2.239,5-5S125.912,165.256,123.151,165.256z"
		/>
	<path d="M85.063,165.256H74.747c-2.761,0-5,2.239-5,5s2.239,5,5,5h10.316c2.761,0,5-2.239,5-5S87.825,165.256,85.063,165.256z"/>
</g>
<g>
</g>
<g>
</g>
<g>
</g>
<g>
</g>
<g>
</g>
<g>
</g>
<g>
</g>
<g>
</g>
<g>
</g>
<g>
</g>
<g>
</g>
<g>
</g>
<g>
</g>
<g>
</g>
<g>
</g>
</svg>
